{
  "source": "C:\\Users\\Peter\\Desktop\\stuff\\MIUN\\quantitative_research\\video_compression\\videos\\HEVC_CLASS_B\\Kimono_1920x1080_24.y4m",
  "output": "C:\\Users\\Peter\\Desktop\\stuff\\MIUN\\quantitative_research\\video_compression\\compressed_videos\\HEVC_CLASS_B\\vp9\\4\\Kimono_1920x1080_24_vp9.webm",
  "codec": "vp9",
  "ok": "Input #0, yuv4mpegpipe, from 'C:\\Users\\Peter\\Desktop\\stuff\\MIUN\\quantitative_research\\video_compression\\videos\\HEVC_CLASS_B\\Kimono_1920x1080_24.y4m':\n  Duration: 00:00:10.00, start: 0.000000, bitrate: 597198 kb/s\n  Stream #0:0: Video: rawvideo (I420 / 0x30323449), yuv420p(progressive), 1920x1080, 24 fps, 24 tbr, 24 tbn\n[out#0/webm @ 000002ac8a529b00] Codec AVOption b:a (set bitrate (in bits/s)) has not been used for any stream. The most likely reason is either wrong type (e.g. a video option with no video streams) or that it is a private option of some decoder which was not actually used for any stream.\nStream mapping:\n  Stream #0:0 -> #0:0 (rawvideo (native) -> vp9 (libvpx-vp9))\nPress [q] to stop, [?] for help\n[libvpx-vp9 @ 000002ac8a52bf40] v1.15.2-100-g40561f514\nOutput #0, webm, to 'C:\\Users\\Peter\\Desktop\\stuff\\MIUN\\quantitative_research\\video_compression\\compressed_videos\\HEVC_CLASS_B\\vp9\\4\\Kimono_1920x1080_24_vp9.webm':\n  Metadata:\n    encoder         : Lavf62.3.100\n  Stream #0:0: Video: vp9, yuv420p(tv, progressive), 1920x1080, q=2-31, 4000 kb/s, 24 fps, 1k tbn\n    Metadata:\n      encoder         : Lavc62.11.100 libvpx-vp9\n    Side data:\n      cpb: bitrate max/min/avg: 0/0/0 buffer size: 4000000 vbv_delay: N/A\nframe=    1 fps=0.0 q=12.0 size=       0KiB time=00:00:00.04 bitrate=  92.5kbits/s speed=0.0798x elapsed=0:00:00.52    \nframe=    7 fps=6.7 q=44.0 size=       0KiB time=00:00:00.29 bitrate=  13.2kbits/s speed=0.278x elapsed=0:00:01.04    \nframe=   11 fps=7.0 q=28.0 size=       0KiB time=00:00:00.45 bitrate=   8.4kbits/s speed=0.291x elapsed=0:00:01.57    \nframe=   16 fps=7.6 q=41.0 size=       0KiB time=00:00:00.66 bitrate=   5.8kbits/s speed=0.317x elapsed=0:00:02.10    \nframe=   20 fps=7.6 q=41.0 size=       0KiB time=00:00:00.83 bitrate=   4.6kbits/s speed=0.317x elapsed=0:00:02.62    \nframe=   24 fps=7.6 q=40.0 size=       0KiB time=00:00:01.00 bitrate=   3.9kbits/s speed=0.317x elapsed=0:00:03.15    \nframe=   29 fps=7.9 q=39.0 size=       0KiB time=00:00:01.20 bitrate=   3.2kbits/s speed=0.33x elapsed=0:00:03.65    \nframe=   32 fps=7.7 q=39.0 size=       0KiB time=00:00:01.33 bitrate=   2.9kbits/s speed=0.319x elapsed=0:00:04.18    \nframe=   37 fps=7.9 q=39.0 size=       0KiB time=00:00:01.54 bitrate=   2.5kbits/s speed=0.328x elapsed=0:00:04.69    \nframe=   40 fps=7.7 q=40.0 size=       0KiB time=00:00:01.66 bitrate=   2.3kbits/s speed=0.319x elapsed=0:00:05.22    \nframe=   45 fps=7.8 q=38.0 size=       0KiB time=00:00:01.87 bitrate=   2.1kbits/s speed=0.327x elapsed=0:00:05.74    \nframe=   49 fps=7.8 q=38.0 size=       0KiB time=00:00:02.04 bitrate=   1.9kbits/s speed=0.326x elapsed=0:00:06.26    \nframe=   53 fps=7.8 q=27.0 size=       0KiB time=00:00:02.20 bitrate=   1.7kbits/s speed=0.325x elapsed=0:00:06.79    \nframe=   58 fps=7.9 q=39.0 size=       0KiB time=00:00:02.41 bitrate=   1.6kbits/s speed=0.33x elapsed=0:00:07.31    \nframe=   62 fps=7.9 q=38.0 size=       0KiB time=00:00:02.58 bitrate=   1.5kbits/s speed=0.329x elapsed=0:00:07.85    \nframe=   66 fps=7.9 q=39.0 size=       0KiB time=00:00:02.75 bitrate=   1.4kbits/s speed=0.328x elapsed=0:00:08.38    \nframe=   70 fps=7.9 q=38.0 size=       0KiB time=00:00:02.91 bitrate=   1.3kbits/s speed=0.328x elapsed=0:00:08.89    \nframe=   75 fps=8.0 q=37.0 size=       0KiB time=00:00:03.12 bitrate=   1.2kbits/s speed=0.332x elapsed=0:00:09.41    \nframe=   79 fps=7.9 q=37.0 size=       0KiB time=00:00:03.29 bitrate=   1.2kbits/s speed=0.331x elapsed=0:00:09.94    \nframe=   83 fps=7.9 q=26.0 size=       0KiB time=00:00:03.45 bitrate=   1.1kbits/s speed=0.33x elapsed=0:00:10.47    \nframe=   88 fps=8.0 q=38.0 size=       0KiB time=00:00:03.66 bitrate=   1.1kbits/s speed=0.333x elapsed=0:00:11.00    \nframe=   92 fps=8.0 q=38.0 size=       0KiB time=00:00:03.83 bitrate=   1.0kbits/s speed=0.332x elapsed=0:00:11.54    \nframe=   96 fps=8.0 q=38.0 size=       0KiB time=00:00:04.00 bitrate=   1.0kbits/s speed=0.332x elapsed=0:00:12.06    \nframe=  100 fps=7.9 q=37.0 size=       0KiB time=00:00:04.16 bitrate=   0.9kbits/s speed=0.331x elapsed=0:00:12.58    \nframe=  105 fps=8.0 q=37.0 size=       0KiB time=00:00:04.37 bitrate=   0.9kbits/s speed=0.334x elapsed=0:00:13.11    \nframe=  109 fps=8.0 q=36.0 size=       0KiB time=00:00:04.54 bitrate=   0.8kbits/s speed=0.333x elapsed=0:00:13.63    \nframe=  113 fps=8.0 q=24.0 size=       0KiB time=00:00:04.70 bitrate=   0.8kbits/s speed=0.332x elapsed=0:00:14.17    \nframe=  117 fps=7.9 q=36.0 size=       0KiB time=00:00:04.87 bitrate=   0.8kbits/s speed=0.331x elapsed=0:00:14.72    \nframe=  121 fps=7.9 q=23.0 size=       0KiB time=00:00:05.04 bitrate=   0.8kbits/s speed=0.331x elapsed=0:00:15.23    \nframe=  126 fps=8.0 q=35.0 size=    2048KiB time=00:00:05.25 bitrate=3195.7kbits/s speed=0.333x elapsed=0:00:15.76    \nframe=  130 fps=8.0 q=37.0 size=    2048KiB time=00:00:05.41 bitrate=3097.3kbits/s speed=0.332x elapsed=0:00:16.30    \nframe=  135 fps=8.0 q=23.0 size=    2048KiB time=00:00:05.62 bitrate=2982.6kbits/s speed=0.334x elapsed=0:00:16.82    \nframe=  139 fps=8.0 q=34.0 size=    2048KiB time=00:00:05.79 bitrate=2896.8kbits/s speed=0.334x elapsed=0:00:17.35    \nframe=  143 fps=8.0 q=31.0 size=    2048KiB time=00:00:05.95 bitrate=2815.8kbits/s speed=0.333x elapsed=0:00:17.88    \nframe=  147 fps=8.0 q=28.0 size=    2048KiB time=00:00:06.12 bitrate=2739.1kbits/s speed=0.333x elapsed=0:00:18.39    \nframe=  152 fps=8.0 q=29.0 size=    2048KiB time=00:00:06.33 bitrate=2649.0kbits/s speed=0.335x elapsed=0:00:18.93    \nframe=  154 fps=7.9 q=29.0 size=    2048KiB time=00:00:06.41 bitrate=2614.6kbits/s speed=0.33x elapsed=0:00:19.45    \nframe=  160 fps=8.0 q=29.0 size=    2048KiB time=00:00:06.66 bitrate=2516.6kbits/s speed=0.334x elapsed=0:00:19.97    \nframe=  164 fps=8.0 q=30.0 size=    2048KiB time=00:00:06.83 bitrate=2455.2kbits/s speed=0.333x elapsed=0:00:20.52    \nframe=  168 fps=8.0 q=28.0 size=    2048KiB time=00:00:07.00 bitrate=2396.7kbits/s speed=0.332x elapsed=0:00:21.06    \nframe=  172 fps=8.0 q=29.0 size=    2048KiB time=00:00:07.16 bitrate=2341.0kbits/s speed=0.332x elapsed=0:00:21.57    \nframe=  175 fps=7.9 q=13.0 size=    2048KiB time=00:00:07.29 bitrate=2300.9kbits/s speed=0.33x elapsed=0:00:22.09    \nframe=  180 fps=8.0 q=28.0 size=    2048KiB time=00:00:07.50 bitrate=2237.0kbits/s speed=0.332x elapsed=0:00:22.61    \nframe=  184 fps=8.0 q=29.0 size=    2048KiB time=00:00:07.66 bitrate=2188.3kbits/s speed=0.331x elapsed=0:00:23.13    \nframe=  189 fps=8.0 q=27.0 size=    2048KiB time=00:00:07.87 bitrate=2130.4kbits/s speed=0.333x elapsed=0:00:23.68    \nframe=  194 fps=8.0 q=28.0 size=    2048KiB time=00:00:08.08 bitrate=2075.5kbits/s speed=0.334x elapsed=0:00:24.20    \nframe=  198 fps=8.0 q=26.0 size=    2048KiB time=00:00:08.25 bitrate=2033.6kbits/s speed=0.334x elapsed=0:00:24.71    \nframe=  203 fps=8.0 q=27.0 size=    2048KiB time=00:00:08.45 bitrate=1983.5kbits/s speed=0.335x elapsed=0:00:25.23    \nframe=  206 fps=8.0 q=27.0 size=    2048KiB time=00:00:08.58 bitrate=1954.6kbits/s speed=0.333x elapsed=0:00:25.77    \nframe=  211 fps=8.0 q=26.0 size=    2048KiB time=00:00:08.79 bitrate=1908.3kbits/s speed=0.334x elapsed=0:00:26.28    \nframe=  214 fps=8.0 q=26.0 size=    2048KiB time=00:00:08.91 bitrate=1881.6kbits/s speed=0.332x elapsed=0:00:26.81    \nframe=  216 fps=7.9 q=26.0 size=    2048KiB time=00:00:09.00 bitrate=1864.1kbits/s speed=0.329x elapsed=0:00:27.33    \nframe=  216 fps=7.8 q=26.0 size=    2048KiB time=00:00:09.00 bitrate=1864.1kbits/s speed=0.323x elapsed=0:00:27.85    \nframe=  216 fps=7.6 q=26.0 size=    2048KiB time=00:00:09.00 bitrate=1864.1kbits/s speed=0.317x elapsed=0:00:28.38    \nframe=  216 fps=7.5 q=26.0 size=    2048KiB time=00:00:09.00 bitrate=1864.1kbits/s speed=0.311x elapsed=0:00:28.92    \nframe=  216 fps=7.3 q=26.0 size=    2048KiB time=00:00:09.00 bitrate=1864.1kbits/s speed=0.306x elapsed=0:00:29.45    \nframe=  216 fps=7.2 q=26.0 size=    2048KiB time=00:00:09.00 bitrate=1864.1kbits/s speed= 0.3x elapsed=0:00:29.97    \n[out#0/webm @ 000002ac8a529b00] video:4637KiB audio:0KiB subtitle:0KiB other streams:0KiB global headers:0KiB muxing overhead: 0.047828%\nframe=  240 fps=8.0 q=23.0 Lsize=    4639KiB time=00:00:10.00 bitrate=3800.4kbits/s speed=0.333x elapsed=0:00:29.99    \n",
  "seconds": 30.1240131855011,
  "probe_out": {}
}